<svg width="40" height="41" viewBox="0 0 40 41" fill="none" xmlns="http://www.w3.org/2000/svg">
<rect y="0.5" width="40" height="40" rx="4" fill="#F5F5F5"/>
<path d="M24.9 25.8001L20.3 21.2001C20.2 21.1001 20.1294 20.9917 20.088 20.8751C20.046 20.7584 20.025 20.6334 20.025 20.5001C20.025 20.3667 20.046 20.2417 20.088 20.1251C20.1294 20.0084 20.2 19.9001 20.3 19.8001L24.9 15.2001C25.0834 15.0167 25.3124 14.9207 25.587 14.9121C25.8624 14.9041 26.1 15.0001 26.3 15.2001C26.4834 15.3834 26.575 15.6167 26.575 15.9001C26.575 16.1834 26.4834 16.4167 26.3 16.6001L22.425 20.5001L26.3 24.4001C26.4834 24.5834 26.579 24.8124 26.587 25.0871C26.5957 25.3624 26.5 25.6001 26.3 25.8001C26.1167 25.9834 25.8834 26.0751 25.6 26.0751C25.3167 26.0751 25.0834 25.9834 24.9 25.8001ZM18.3 25.8001L13.7 21.2001C13.6 21.1001 13.5294 20.9917 13.488 20.8751C13.446 20.7584 13.425 20.6334 13.425 20.5001C13.425 20.3667 13.446 20.2417 13.488 20.1251C13.5294 20.0084 13.6 19.9001 13.7 19.8001L18.3 15.2001C18.4834 15.0167 18.7127 14.9207 18.988 14.9121C19.2627 14.9041 19.5 15.0001 19.7 15.2001C19.8834 15.3834 19.975 15.6167 19.975 15.9001C19.975 16.1834 19.8834 16.4167 19.7 16.6001L15.825 20.5001L19.7 24.4001C19.8834 24.5834 19.9794 24.8124 19.988 25.0871C19.996 25.3624 19.9 25.6001 19.7 25.8001C19.5167 25.9834 19.2834 26.0751 19 26.0751C18.7167 26.0751 18.4834 25.9834 18.3 25.8001Z" fill="#BDBDBD"/>
</svg>
