<svg width="37" height="41" viewBox="0 0 37 41" fill="none" xmlns="http://www.w3.org/2000/svg">
<path d="M10.7222 20.89H24.3333M10.7222 28.69H19.2389M26.2778 4.939C32.7528 5.29 36 7.6885 36 16.6V28.3C36 36.1 34.0556 40 24.3333 40H12.6667C2.94445 40 1 36.1 1 28.3V16.6C1 7.708 4.24722 5.29 10.7222 4.939M14.6111 8.8H22.3889C26.2778 8.8 26.2778 6.85 26.2778 4.9C26.2778 1 24.3333 1 22.3889 1H14.6111C12.6667 1 10.7222 1 10.7222 4.9C10.7222 8.8 12.6667 8.8 14.6111 8.8Z" stroke="#BDBDBD" stroke-width="1.5" stroke-miterlimit="10" stroke-linecap="round" stroke-linejoin="round"/>
</svg>
