<svg width="37" height="37" viewBox="0 0 37 37" fill="none" xmlns="http://www.w3.org/2000/svg">
<path d="M27.239 22.7673C29.6407 23.1697 32.2879 22.7498 34.1461 21.5075C36.618 19.8627 36.618 17.168 34.1461 15.5232C32.2703 14.2809 29.5881 13.8609 27.1864 14.2808M9.76095 22.7673C7.35925 23.1697 4.71212 22.7498 2.85387 21.5075C0.382044 19.8627 0.382044 17.168 2.85387 15.5232C4.72965 14.2809 7.41184 13.8609 9.81354 14.2808M29.0447 10.0289C28.9395 10.0114 28.8168 10.0114 28.7116 10.0289C26.2924 9.94139 24.364 7.96413 24.364 5.51444C24.364 3.01225 26.38 1 28.8869 1C31.3938 1 33.4098 3.02975 33.4098 5.51444C33.3923 7.96413 31.4639 9.94139 29.0447 10.0289ZM7.95529 10.0289C8.06048 10.0114 8.18319 10.0114 8.28837 10.0289C10.7076 9.94139 12.636 7.96413 12.636 5.51444C12.636 3.01225 10.62 1 8.11307 1C5.60618 1 3.59015 3.02975 3.59015 5.51444C3.60768 7.96413 5.53606 9.94139 7.95529 10.0289ZM18.5263 23.0997C18.4211 23.0822 18.2984 23.0822 18.1932 23.0997C15.774 23.0123 13.8456 21.035 13.8456 18.5853C13.8456 16.0831 15.8616 14.0709 18.3685 14.0709C20.8754 14.0709 22.8914 16.1006 22.8914 18.5853C22.8739 21.035 20.9455 23.0298 18.5263 23.0997ZM13.4249 28.6116C10.953 30.2563 10.953 32.951 13.4249 34.5958C16.2298 36.4681 20.8228 36.4681 23.6277 34.5958C26.0995 32.951 26.0995 30.2563 23.6277 28.6116C20.8403 26.7568 16.2298 26.7568 13.4249 28.6116Z" stroke="#BDBDBD" stroke-width="1.5" stroke-linecap="round" stroke-linejoin="round"/>
</svg>
