<svg width="37" height="39" viewBox="0 0 37 39" fill="none" xmlns="http://www.w3.org/2000/svg">
<path d="M10.2105 1V6.28571M24.9474 1V6.28571M1.92105 13.4919H33.2368M23.7868 36.2381C25.0763 37.3481 26.7711 38 28.6316 38C31.3211 38 33.6605 36.6257 34.9316 34.5819C35.6132 33.5248 36 32.2738 36 30.9524C36 29.1729 35.3 27.5519 34.1579 26.3009M23.7868 36.2381C23.2158 35.78 22.7184 35.2162 22.3316 34.5819C21.65 33.5248 21.2632 32.2738 21.2632 30.9524C21.2632 27.0586 24.5605 23.9048 28.6316 23.9048C30.8421 23.9048 32.8132 24.8385 34.1579 26.3009M23.7868 36.2381H10.2105C3.76316 36.2381 1 32.7143 1 27.4286V12.4524C1 7.16667 3.76316 3.64286 10.2105 3.64286H24.9474C31.3947 3.64286 34.1579 7.16667 34.1579 12.4524V26.3009M25.7579 30.9524L27.5816 32.6966L31.5053 29.2257M17.5706 21.6143H17.5872M10.7527 21.6143H10.7692M10.7527 26.9H10.7692" stroke="#BDBDBD" stroke-width="1.5" stroke-linecap="round" stroke-linejoin="round"/>
</svg>
