<svg width="39" height="39" viewBox="0 0 39 39" fill="none" xmlns="http://www.w3.org/2000/svg">
<path d="M19.4908 25.221C22.5544 25.221 25.038 22.6596 25.038 19.5C25.038 16.3404 22.5544 13.779 19.4908 13.779C16.4271 13.779 13.9435 16.3404 13.9435 19.5C13.9435 22.6596 16.4271 25.221 19.4908 25.221Z" stroke="#BDBDBD" stroke-width="1.5" stroke-miterlimit="10" stroke-linecap="round" stroke-linejoin="round"/>
<path d="M1 21.1782V17.8218C1 15.8386 2.57171 14.1985 4.51324 14.1985C7.86007 14.1985 9.22839 11.7576 7.54573 8.76358C6.58421 7.04728 7.15742 4.81609 8.84008 3.82445L12.039 1.93652C13.4997 1.04022 15.3858 1.57419 16.2549 3.08072L16.4583 3.44305C18.1224 6.43704 20.8591 6.43704 22.5417 3.44305L22.7451 3.08072C23.6142 1.57419 25.5002 1.04022 26.961 1.93652L30.1599 3.82445C31.8426 4.81609 32.4158 7.04728 31.4543 8.76358C29.7716 11.7576 31.1399 14.1985 34.4868 14.1985C36.4098 14.1985 38 15.8195 38 17.8218V21.1782C38 23.1614 36.4283 24.8015 34.4868 24.8015C31.1399 24.8015 29.7716 27.2424 31.4543 30.2364C32.4158 31.9718 31.8426 34.1839 30.1599 35.1756L26.961 37.0635C25.5002 37.9598 23.6142 37.4258 22.7451 35.9193L22.5417 35.557C20.8776 32.563 18.1409 32.563 16.4583 35.557L16.2549 35.9193C15.3858 37.4258 13.4997 37.9598 12.039 37.0635L8.84008 35.1756C7.15742 34.1839 6.58421 31.9527 7.54573 30.2364C9.22839 27.2424 7.86007 24.8015 4.51324 24.8015C2.57171 24.8015 1 23.1614 1 21.1782Z" stroke="#BDBDBD" stroke-width="1.5" stroke-miterlimit="10" stroke-linecap="round" stroke-linejoin="round"/>
</svg>
